<?xml version="1.0" encoding="UTF-8"?>
<!DOCTYPE svg PUBLIC "-//W3C//DTD SVG 1.1//EN" "http://www.w3.org/Graphics/SVG/1.1/DTD/svg11.dtd">
<svg xmlns="http://www.w3.org/2000/svg" version="1.1" width="32px" height="32px" style="shape-rendering:geometricPrecision; text-rendering:geometricPrecision; image-rendering:optimizeQuality; fill-rule:evenodd; clip-rule:evenodd" xmlns:xlink="http://www.w3.org/1999/xlink">
<g><path style="opacity:0.813" fill="#b1c5d3" d="M 11.5,-0.5 C 14.1667,-0.5 16.8333,-0.5 19.5,-0.5C 21.8363,0.845008 23.503,2.84501 24.5,5.5C 21.4618,6.98319 19.1285,6.14986 17.5,3C 12.9778,2.67449 10.3111,4.84116 9.5,9.5C 8.5,10.8333 7.5,10.8333 6.5,9.5C 6.07467,5.01676 7.74133,1.68343 11.5,-0.5 Z"/></g>
<g><path style="opacity:1" fill="#f9d400" d="M 6.5,9.5 C 7.5,10.8333 8.5,10.8333 9.5,9.5C 15.8421,9.33379 22.1754,9.50046 28.5,10C 29.3802,11.3561 29.7135,12.8561 29.5,14.5C 20.1667,14.5 10.8333,14.5 1.5,14.5C 0.833333,10.5 2.5,8.83333 6.5,9.5 Z"/></g>
<g><path style="opacity:0.945" fill="#e7bb03" d="M 1.5,14.5 C 10.8333,14.5 20.1667,14.5 29.5,14.5C 29.5,16.1667 29.5,17.8333 29.5,19.5C 25.9367,17.9629 22.6034,18.2963 19.5,20.5C 19.1583,19.6618 18.4916,19.3284 17.5,19.5C 17.38,18.4138 16.7133,17.7472 15.5,17.5C 14.2867,17.7472 13.62,18.4138 13.5,19.5C 9.5,19.5 5.5,19.5 1.5,19.5C 1.5,17.8333 1.5,16.1667 1.5,14.5 Z"/></g>
<g><path style="opacity:1" fill="#594f38" d="M 17.5,19.5 C 16.1667,24.8333 14.8333,24.8333 13.5,19.5C 13.62,18.4138 14.2867,17.7472 15.5,17.5C 16.7133,17.7472 17.38,18.4138 17.5,19.5 Z"/></g>
<g><path style="opacity:0.948" fill="#e1a400" d="M 1.5,19.5 C 5.5,19.5 9.5,19.5 13.5,19.5C 14.8333,24.8333 16.1667,24.8333 17.5,19.5C 18.4916,19.3284 19.1583,19.6618 19.5,20.5C 18.8902,21.391 18.5569,22.391 18.5,23.5C 12.9252,24.4524 7.25858,24.7857 1.5,24.5C 1.5,22.8333 1.5,21.1667 1.5,19.5 Z"/></g>
<g><path style="opacity:1" fill="#209b54" d="M 29.5,19.5 C 30.1667,19.8333 30.8333,20.1667 31.5,20.5C 31.5,23.1667 31.5,25.8333 31.5,28.5C 30.5,29.5 29.5,30.5 28.5,31.5C 25.8333,31.5 23.1667,31.5 20.5,31.5C 20.1667,30.8333 19.8333,30.1667 19.5,29.5C 18.6586,27.6208 18.3253,25.6208 18.5,23.5C 18.5569,22.391 18.8902,21.391 19.5,20.5C 22.6034,18.2963 25.9367,17.9629 29.5,19.5 Z"/></g>
<g><path style="opacity:0.832" fill="#c18c01" d="M 18.5,23.5 C 18.3253,25.6208 18.6586,27.6208 19.5,29.5C 13.8236,29.6661 8.15688,29.4994 2.5,29C 1.61983,27.6439 1.28649,26.1439 1.5,24.5C 7.25858,24.7857 12.9252,24.4524 18.5,23.5 Z"/></g>
<g><path style="opacity:1" fill="#c6e5d4" d="M 27.5,22.5 C 28.1183,24.6636 27.1183,26.3303 24.5,27.5C 20.7644,25.19 20.7644,24.5233 24.5,25.5C 25.8549,24.8118 26.8549,23.8118 27.5,22.5 Z"/></g>
</svg>
